<?xml version="1.0" encoding="UTF-8"?>
<svg width="512" height="512" viewBox="0 0 108 108" xmlns="http://www.w3.org/2000/svg">
  <rect width="108" height="108" fill="#E3F2FD" rx="18"/>
  <path fill="#2962FF" d="M54,18L45,27h6c12.15,0 22,9.85 22,22 0,3.7 -0.93,7.19 -2.57,10.23l5.2,5.2C78.73,60.07 81,53.31 81,46 81,30.01 67.99,17 52,17h-1z"/>
  <path fill="#2962FF" d="M27.77,31.77L24,35.54l7,7C29.75,45.1 29,47.48 29,50c0,13.25 10.75,24 24,24v9l9,-9 -9,-9v6c-8.28,0 -15,-6.72 -15,-15 0,-2.13 0.45,-4.16 1.26,-6l8.74,8.74 3.77,-3.77 -13,-13z"/>
</svg>
